<svg aria-hidden="true" style="position: absolute; width: 0; height: 0; overflow: hidden;" version="1.1" xmlns="http://www.w3.org/2000/svg" xmlns:xlink="http://www.w3.org/1999/xlink">
<defs>
<symbol id="facebook" viewBox="0 0 32 32">
<path d="M28.090 0c2.158 0 3.91 1.752 3.91 3.91v24.181c0 2.158-1.752 3.91-3.91 3.91h-6.654v-12.057h4.162l0.792-5.164h-4.954v-3.351c0-1.413 0.692-2.79 2.911-2.79h2.253v-4.396c0 0-2.044-0.349-3.999-0.349-4.081 0-6.747 2.473-6.747 6.95v3.936h-4.536v5.164h4.536v12.057h-11.944c-2.158 0-3.91-1.752-3.91-3.91v-24.181c0-2.158 1.752-3.91 3.91-3.91h24.181z"></path>
</symbol>
<symbol id="telegram" viewBox="0 0 32 32">
<path d="M16 1.28c8.13 0 14.72 6.59 14.72 14.72s-6.59 14.72-14.72 14.72-14.72-6.59-14.72-14.72 6.59-14.72 14.72-14.72zM21.078 22c0.271-0.831 1.539-9.11 1.696-10.741 0.047-0.494-0.109-0.822-0.415-0.969-0.37-0.178-0.918-0.089-1.553 0.14-0.872 0.314-12.015 5.046-12.659 5.32-0.611 0.259-1.188 0.542-1.188 0.952 0 0.288 0.171 0.45 0.642 0.618 0.49 0.175 1.725 0.549 2.454 0.75 0.702 0.194 1.501 0.026 1.949-0.253 0.475-0.295 5.955-3.962 6.349-4.284s0.707 0.090 0.385 0.412c-0.321 0.321-4.083 3.972-4.579 4.478-0.602 0.614-0.175 1.25 0.229 1.505 0.461 0.291 3.78 2.516 4.28 2.874s1.007 0.519 1.471 0.519c0.464 0 0.708-0.611 0.94-1.321z"></path>
</symbol>
<symbol id="linkedin" viewBox="0 0 32 32">
<path d="M29.582-0.085c1.305 0 2.368 1.033 2.368 2.308v27.391c0 1.275-1.063 2.31-2.368 2.31h-27.279c-1.302 0-2.361-1.035-2.361-2.31v-27.391c0-1.275 1.058-2.308 2.361-2.308h27.279zM27.217 27.19v-8.377c0-4.114-0.888-7.277-5.695-7.277-2.31 0-3.859 1.266-4.492 2.467h-0.065v-2.088h-4.551v15.275h4.742v-7.555c0-1.993 0.377-3.923 2.847-3.923 2.436 0 2.467 2.279 2.467 4.050v7.428h4.747zM9.437 11.915h-4.752v15.275h4.752v-15.275zM7.062 4.322c-1.525 0-2.754 1.233-2.754 2.753s1.229 2.753 2.754 2.753c1.519 0 2.752-1.233 2.752-2.753s-1.233-2.753-2.752-2.753z"></path>
</symbol>
</defs>
</svg>
