<svg aria-hidden="true" style="position: absolute; width: 0; height: 0; overflow: hidden;" version="1.1" xmlns="http://www.w3.org/2000/svg" xmlns:xlink="http://www.w3.org/1999/xlink">
<defs>
<symbol id="cross" viewBox="0 0 32 32">
  <path fill-rule="evenodd" clip-rule="evenodd" d="M5.29289 5.29289C5.68342 4.90237 6.31658 4.90237 6.70711 5.29289L12 10.5858L17.2929 5.29289C17.6834 4.90237 18.3166 4.90237 18.7071 5.29289C19.0976 5.68342 19.0976 6.31658 18.7071 6.70711L13.4142 12L18.7071 17.2929C19.0976 17.6834 19.0976 18.3166 18.7071 18.7071C18.3166 19.0976 17.6834 19.0976 17.2929 18.7071L12 13.4142L6.70711 18.7071C6.31658 19.0976 5.68342 19.0976 5.29289 18.7071C4.90237 18.3166 4.90237 17.6834 5.29289 17.2929L10.5858 12L5.29289 6.70711C4.90237 6.31658 4.90237 5.68342 5.29289 5.29289Z"/>
</symbol>
<symbol id="burger-btn" viewBox="0 0 32 32">
  <path d="M5.3335 8H26.6668V10.6667H5.3335V8ZM5.3335 14.6667H26.6668V17.3333H5.3335V14.6667ZM5.3335 21.3333H26.6668V24H5.3335V21.3333Z"/>
</symbol>
<symbol id="facebook" viewBox="0 0 32 32">
<path d="M16 1.92c-7.776 0-14.080 6.304-14.080 14.080 0 7.059 5.2 12.888 11.976 13.906v-10.174h-3.484v-3.701h3.484v-2.463c0-4.077 1.987-5.868 5.375-5.868 1.623 0 2.481 0.12 2.888 0.175v3.231h-2.312c-1.439 0-1.941 1.364-1.941 2.901v2.023h4.216l-0.572 3.701h-3.644v10.204c6.872-0.932 12.174-6.808 12.174-13.936 0-7.776-6.304-14.080-14.080-14.080z"></path>
</symbol>
<symbol id="linkedin" viewBox="0 0 32 32">
<path d="M16 1.28c-8.116 0-14.72 6.603-14.72 14.72s6.604 14.72 14.72 14.72 14.72-6.603 14.72-14.72-6.604-14.72-14.72-14.72zM11.52 22.4h-2.56v-9.6h2.56v9.6zM10.24 10.88c-0.707 0-1.28-0.573-1.28-1.28s0.573-1.28 1.28-1.28 1.28 0.573 1.28 1.28c0 0.707-0.573 1.28-1.28 1.28zM23.68 22.4h-2.56v-4.8c0-1.232-1.008-2.24-2.24-2.24s-2.24 1.008-2.24 2.24v4.8h-2.56v-9.6h2.56v1.162c0.748-0.718 1.761-1.162 2.88-1.162 2.298 0 4.16 1.862 4.16 4.16v5.44z"></path>
</symbol>
<symbol id="telegram" viewBox="0 0 32 32">
<path d="M16 1.28c8.13 0 14.72 6.59 14.72 14.72s-6.59 14.72-14.72 14.72-14.72-6.59-14.72-14.72 6.59-14.72 14.72-14.72zM21.078 22c0.271-0.831 1.539-9.11 1.696-10.741 0.047-0.494-0.109-0.822-0.415-0.969-0.37-0.178-0.918-0.089-1.553 0.14-0.872 0.314-12.015 5.046-12.659 5.32-0.611 0.259-1.188 0.542-1.188 0.952 0 0.288 0.171 0.45 0.642 0.618 0.49 0.175 1.725 0.549 2.454 0.75 0.702 0.194 1.501 0.026 1.949-0.253 0.475-0.295 5.955-3.962 6.349-4.284s0.707 0.090 0.385 0.412c-0.321 0.321-4.083 3.972-4.579 4.478-0.602 0.614-0.175 1.25 0.229 1.505 0.461 0.291 3.78 2.516 4.28 2.874s1.007 0.519 1.471 0.519c0.464 0 0.708-0.611 0.94-1.321z"></path>
</symbol>
</defs>
</svg>
